<?xml version="1.0" encoding="utf-8"?>
<!-- Generator: Adobe Illustrator 21.0.0, SVG Export Plug-In . SVG Version: 6.00 Build 0)  -->
<svg version="1.1" id="Capa_1" xmlns="http://www.w3.org/2000/svg" xmlns:xlink="http://www.w3.org/1999/xlink" x="0px" y="0px"
	 viewBox="0 0 90 100" style="enable-background:new 0 0 90 100;" xml:space="preserve">
<g>
	<g>
		<path d="M56.3,10H37.9c-8.2,0-13.9,1.9-19,6.2c-4,3.6-6.4,8.8-6.4,14c0,7.9,5.8,16.4,16.7,16.4c1,0,2.2-0.1,3.2-0.2l-0.1,0.4
			c-0.4,1.1-0.8,2.1-0.8,3.7c0,3.1,1.4,5,2.8,6.9l0.2,0.2l-0.3,0c-4.5,0.3-12.8,0.9-18.9,4.8c-7.2,4.4-7.7,10.9-7.7,12.7
			c0,7.4,6.7,14.9,21.6,14.9c17.3,0,26.4-9.9,26.4-19.7c0-7.2-4.1-10.8-8.4-14.6l-3.7-3c-1.1-1-2.5-2.2-2.5-4.4c0-2.2,1.4-3.7,2.7-5
			l0.1-0.1c4-3.2,8.5-6.9,8.5-14.8c0-8-4.8-12.1-7.1-14.1h6.1c0.1,0,0.1,0,0.2-0.1l5.3-3.4c0.1-0.1,0.2-0.3,0.2-0.5
			C56.7,10.1,56.5,10,56.3,10z M34,85.6c-10.6,0-17.7-5.1-17.7-12.7c0-5,2.9-8.6,8.6-10.7c4.6-1.6,10.5-1.7,10.6-1.7
			c1,0,1.5,0,2.3,0.1c7.4,5.5,10.9,8.3,10.9,13.8C48.8,81.3,43.1,85.6,34,85.6z M33.9,43.7c-8.9,0-12.5-12.1-12.5-18.6
			c0-3.3,0.7-5.8,2.2-7.7c1.6-2.1,4.4-3.4,7-3.4c8.1,0,12.6,11.4,12.6,19.2c0,1.2,0,5-2.5,7.6C39,42.5,36.3,43.7,33.9,43.7z"/>
		<path d="M82.1,47.4h-9.7v-10c0-0.2-0.2-0.4-0.4-0.4h-4.2c-0.2,0-0.4,0.2-0.4,0.4v10h-9.6c-0.2,0-0.4,0.2-0.4,0.4v4.4
			c0,0.2,0.2,0.4,0.4,0.4h9.6v10.1c0,0.2,0.2,0.4,0.4,0.4H72c0.2,0,0.4-0.2,0.4-0.4V52.6h9.7c0.2,0,0.4-0.2,0.4-0.4v-4.4
			C82.5,47.5,82.3,47.4,82.1,47.4z"/>
	</g>
</g>
</svg>
