<?xml version="1.0" encoding="utf-8"?>
<!-- Generator: Adobe Illustrator 21.0.0, SVG Export Plug-In . SVG Version: 6.00 Build 0)  -->
<svg version="1.1" id="Capa_1" xmlns="http://www.w3.org/2000/svg" xmlns:xlink="http://www.w3.org/1999/xlink" x="0px" y="0px"
	 viewBox="0 0 80 80" style="enable-background:new 0 0 80 80;" xml:space="preserve">
<g>
	<g>
		<ellipse cx="40.1" cy="39.9" rx="11.7" ry="11.3"/>
		<path d="M58.2,40.5C58.2,50.2,50,58,40.1,58S22,50.2,22,40.5c0-1.7,0.3-3.4,0.7-5h-5.3v24.6c0,1.3,1,2.3,2.3,2.3h40.5
			c1.3,0,2.3-1,2.3-2.3V35.5h-5.1C57.9,37.1,58.2,38.8,58.2,40.5z"/>
		<path d="M53.3,28.9h6.6c1.4,0,2.6-1.2,2.6-2.6V20c0-1.4-1.2-2.6-2.6-2.6h-6.6c-1.4,0-2.6,1.2-2.6,2.6v6.3
			C50.7,27.7,51.9,28.9,53.3,28.9z"/>
		<path d="M40,0.5C18.2,0.5,0.5,18.2,0.5,40S18.2,79.5,40,79.5S79.5,61.8,79.5,40S61.8,0.5,40,0.5z M61.6,69.1H18.4
			c-4.1,0-7.5-3-7.5-7.5V18.4c0-4.4,3.4-7.5,7.5-7.5h43.3c4.1,0,7.5,3,7.5,7.5v43.3C69.1,66.1,65.7,69.1,61.6,69.1z"/>
	</g>
</g>
</svg>
