<?xml version="1.0" encoding="utf-8"?>
<!-- Generator: Adobe Illustrator 21.0.0, SVG Export Plug-In . SVG Version: 6.00 Build 0)  -->
<svg version="1.1" id="Capa_1" xmlns="http://www.w3.org/2000/svg" xmlns:xlink="http://www.w3.org/1999/xlink" x="0px" y="0px"
	 viewBox="0 0 65 80" style="enable-background:new 0 0 65 80;" xml:space="preserve">
<g>
	<g>
		<path d="M38.5,50.9c-0.8-1.1-1.8-2.2-2.8-3.2c-1-1-2.1-1.9-3.1-2.7c-1-0.8-2-1.6-2.8-2.3c-0.8-0.7-1.5-1.5-2.1-2.3S27,38.9,27,38
			c0-1.2,0.4-2.2,1.1-3.2c0.7-1,1.6-2,2.7-2.9c1.1-0.9,2.1-2,3.2-3.1c1.1-1.1,2-2.6,2.7-4.4c0.7-1.8,1.1-4,1.1-6.3
			c0-2.8-0.6-5.5-1.9-8.1c-1.3-2.6-3-4.6-5.3-6.1h6.5L43.6,0h-21c-3,0-6,0.3-9,1C9.1,2,5.4,4.2,2.3,7.8c-3,3.5-4.6,7.6-4.6,12
			c0,4.7,1.7,8.7,5.1,11.8c3.4,3.1,7.5,4.7,12.3,4.7c1,0,2.1-0.1,3.4-0.2c-0.1,0.3-0.2,0.6-0.3,1c-0.2,0.4-0.3,0.8-0.4,1
			c-0.1,0.3-0.2,0.6-0.2,0.9c-0.1,0.4-0.1,0.7-0.1,1.1c0,2.1,1,4.5,3.1,7.2c-2.4,0.1-4.8,0.3-7.2,0.7c-2.4,0.4-4.9,0.9-7.5,1.7
			c-2.6,0.8-4.9,1.9-7,3.4c-2.1,1.5-3.6,3.3-4.6,5.3C-6.9,60.9-7.5,63-7.5,65c0,2.1,0.5,4.1,1.4,5.8c1,1.7,2.2,3.2,3.7,4.3
			c1.5,1.1,3.2,2,5.2,2.8c2,0.8,3.9,1.3,5.9,1.6c1.9,0.3,3.9,0.5,5.7,0.5c8.6,0,15.3-2.1,20.2-6.3c4.5-3.9,6.7-8.4,6.7-13.6
			c0-1.8-0.3-3.5-0.8-5.1C40.1,53.4,39.4,52.1,38.5,50.9z M20,33.5c-1.6,0-3.2-0.4-4.7-1.3c-1.5-0.8-2.7-1.9-3.8-3.2
			c-1-1.3-1.9-2.8-2.7-4.5c-0.8-1.7-1.3-3.3-1.7-5c-0.4-1.7-0.6-3.3-0.6-4.8c0-3.1,0.8-5.7,2.5-7.9C10.7,4.6,13,3.5,16,3.5
			c2.1,0,4,0.7,5.7,2c1.7,1.3,3.1,3,4,5c1,2,1.7,4.1,2.3,6.3c0.5,2.2,0.8,4.2,0.8,6.1c0,3.2-0.7,5.8-2.1,7.7
			C25.4,32.5,23.1,33.5,20,33.5z M33.3,69.6c-0.9,1.5-2.1,2.7-3.6,3.5c-1.5,0.9-3.1,1.5-4.8,1.9c-1.7,0.4-3.5,0.6-5.4,0.6
			c-2.1,0-4.1-0.2-6.1-0.7c-2-0.5-4-1.2-5.8-2.2c-1.8-1-3.3-2.3-4.5-4C2,66.9,1.4,65,1.4,62.8c0-1.9,0.4-3.6,1.3-5.1
			c0.9-1.5,2-2.7,3.3-3.6c1.3-0.9,2.9-1.6,4.7-2.2c1.8-0.6,3.5-1,5.2-1.2c1.7-0.2,3.4-0.3,5.1-0.3c1.1,0,1.9,0,2.4,0.1
			c0.2,0.1,0.7,0.5,1.5,1s1.3,0.9,1.6,1.1c0.3,0.2,0.8,0.6,1.5,1.1c0.7,0.5,1.2,1,1.5,1.2c0.3,0.3,0.7,0.7,1.3,1.2
			c0.6,0.5,1,1,1.3,1.4c0.3,0.4,0.6,0.9,1,1.5c0.4,0.6,0.7,1.1,0.8,1.7c0.2,0.5,0.3,1.1,0.5,1.7c0.1,0.6,0.2,1.3,0.2,1.9
			C34.6,66.3,34.2,68.1,33.3,69.6z"/>
		<polygon points="60.2,12.3 60.2,0 54,0 54,12.3 41.7,12.3 41.7,18.5 54,18.5 54,30.8 60.2,30.8 60.2,18.5 72.5,18.5 72.5,12.3 		
			"/>
	</g>
</g>
</svg>
