<?xml version="1.0" encoding="utf-8"?>
<!-- Generator: Adobe Illustrator 21.0.0, SVG Export Plug-In . SVG Version: 6.00 Build 0)  -->
<svg version="1.1" id="Capa_1" xmlns="http://www.w3.org/2000/svg" xmlns:xlink="http://www.w3.org/1999/xlink" x="0px" y="0px"
	 viewBox="0 0 80 80" style="enable-background:new 0 0 80 80;" xml:space="preserve">
<g>
	<path d="M40,0C17.9,0,0,17.9,0,40s17.9,40,40,40s40-17.9,40-40S62.1,0,40,0z M63,28.2c0,0.5,0,1,0,1.5c0,15.7-11.9,33.7-33.7,33.7
		c-6.7,0-12.9-2-18.2-5.3c0.9,0.1,1.9,0.2,2.8,0.2c5.6,0,10.7-1.9,14.7-5.1c-5.2-0.1-9.6-3.5-11.1-8.2c0.7,0.1,1.5,0.2,2.2,0.2
		c1.1,0,2.1-0.1,3.1-0.4c-5.4-1.1-9.5-5.9-9.5-11.6c0-0.1,0-0.1,0-0.1c1.6,0.9,3.4,1.4,5.4,1.5c-3.2-2.1-5.3-5.8-5.3-9.9
		c0-2.2,0.6-4.2,1.6-6c5.8,7.2,14.6,11.9,24.4,12.4c-0.2-0.9-0.3-1.8-0.3-2.7c0-6.5,5.3-11.9,11.9-11.9c3.4,0,6.5,1.4,8.7,3.7
		c2.7-0.5,5.2-1.5,7.5-2.9c-0.9,2.8-2.8,5.1-5.2,6.6c2.4-0.3,4.7-0.9,6.8-1.9C67.3,24.4,65.3,26.5,63,28.2z"/>
</g>
</svg>
